<svg xmlns="http://www.w3.org/2000/svg" width="16" height="16" fill="none" viewBox="0 0 16 16">
    <path stroke="#FF6B6B" stroke-width=".667" d="M6 11.334l-1.655 2.481c-.147.222.012.519.278.519h6.754c.266 0 .425-.297.277-.519L10 11.334"/>
    <path stroke="#FF6B6B" stroke-linecap="round" stroke-linejoin="round" stroke-width=".667" d="M12 8V5.333c0-1.333-.8-4-4-4-.813 0-1.47.173-2 .451m5 8.97C10.386 11.464 9.434 12 8 12c-1.333-.11-4-1.066-4-4V5.333c0-.197.018-.423.058-.666"/>
    <path stroke="#fff" stroke-linecap="round" stroke-linejoin="round" stroke-width=".667" d="M12 8V5.333c0-1.333-.8-4-4-4-.813 0-1.47.173-2 .451"/>
    <path stroke="#FF6B6B" stroke-linecap="round" stroke-linejoin="round" stroke-width=".667" d="M6.667 10.333h2.667"/>
    <path stroke="#FF6B6B" stroke-linecap="round" stroke-linejoin="round" stroke-width=".889" d="M4 2l8.667 8.667"/>
    <path stroke="#fff" stroke-linecap="round" stroke-linejoin="round" stroke-width=".667" d="M7.333 3.418c.213-.055.436-.085.667-.085 1.472 0 2.666 1.194 2.666 2.667 0 .23-.029.454-.084.667"/>
    <path stroke="#FF6B6B" stroke-linecap="round" stroke-linejoin="round" stroke-width=".667" d="M8.666 8.583c-.213.055-.436.084-.666.084-1.473 0-2.667-1.194-2.667-2.667 0-.23.03-.453.084-.667"/>
</svg>
