<svg xmlns="http://www.w3.org/2000/svg" width="212" height="201" fill="none" viewBox="0 0 212 201">
    <path fill="#F7F8FA" d="M0 0H211.492V200.005H0z"/>
    <path fill="#1E6CEB" stroke="#1E6CEB" stroke-width=".443" d="M98.507 27.704L29.513 67.508l.171 64.799 56.068 32.356 68.994-39.889v-4.794l-51.788-29.96V30.272l-4.451-2.568z"/>
    <path fill="#1E6CEB" stroke="#F9F9F9" stroke-width=".443" d="M98.593 87.452l-60.434 34.925V74.869l60.434-34.84v47.423z"/>
    <path stroke="#F9F9F9" stroke-width=".443" d="M102.959 30.271l-69.08 39.89v59.749l51.788 29.874 69.079-39.804"/>
    <path fill="#1E6CEB" d="M42.931 72.37l-4.587 2.67v4.817l4.587-2.695V72.37zM98.593 87.452l-60.434 34.925V80.201l60.434-34.748v41.999z"/>
    <path stroke="#F9F9F9" stroke-width=".443" d="M29.055 67.128l4.817 2.982M33.88 129.91l69.079-39.89"/>
    <path fill="#F9F9F9" d="M68.228 80.88c-12.119 6.998-21.397 22.402-21.397 36.708l43.006-24.886c0-11.47-9.49-18.818-21.609-11.821z"/>
    <path stroke="#F9F9F9" stroke-width=".443" d="M38.16 80.176l60.433-34.84M128.895 129.739l-25.936 14.98-12.84-7.448 25.936-14.894 12.84 7.362z"/>
    <path fill="#1E6CEB" stroke="#F9F9F9" stroke-width=".443" d="M128.896 109.879l-60.434 34.84-25.851-14.98 60.433-34.84 25.852 14.98z"/>
    <path stroke="#F9F9F9" stroke-width=".443" d="M47.062 132.306l60.347-34.839M51.256 134.703l60.348-34.839M55.622 137.271l60.348-34.924M59.816 139.754l60.433-34.925M64.268 142.236l60.348-34.839M59.816 119.809l25.937 14.98M55.45 122.377l25.852 14.894M51.17 124.774l25.937 14.98M46.805 127.342l25.851 14.98M85.753 104.829l25.851 14.98M89.947 102.432l25.937 14.98M94.398 99.864l25.852 14.98M98.593 97.381l25.937 15.066M64.01 117.412l21.657 12.498M68.462 114.844l21.657 12.498M72.57 112.447l21.658 12.498M77.022 109.879l21.657 12.498M81.302 107.397l21.657 12.498M42.953 72.105v5.311M89.836 92.587c0-11.47-9.513-18.863-21.631-11.866-12.119 6.997-21.49 22.446-21.49 36.752"/>
    <path stroke="#1E6CEB" stroke-linecap="round" stroke-width=".443" d="M64.867 89.618c3.04-2.703 6.419-4.73 10.135-5.743"/>
    <circle cx="68.034" cy="85.141" r=".257" fill="#1E6CEB"/>
    <circle cx="61.785" cy="58.177" r=".257" fill="#F9F9F9"/>
    <circle cx="120.335" cy="74.955" r=".257" fill="#1E6CEB"/>
    <circle cx="70.431" cy="83.771" r=".257" fill="#1E6CEB"/>
    <path stroke="#F9F9F9" stroke-linecap="round" stroke-width=".443" d="M63.326 57.236l8.645-5.05"/>
    <path stroke="#F9F9F9" stroke-width=".443" d="M85.708 159.791v5.505"/>
    <path fill="#F9F9F9" stroke="#1E6CEB" stroke-width=".443" d="M161.965 150.804v-49.82l17.205-10.015v59.835l-21.057 12.155v-9.93l3.852-2.225z"/>
    <path stroke="#1E6CEB" stroke-linecap="round" stroke-width=".443" d="M170.61 100.984v44.855"/>
</svg>
