<svg xmlns="http://www.w3.org/2000/svg" width="24" height="24" fill="none" viewBox="0 0 24 24">
    <path fill="#86B4FF" d="M10.998 3.774h1.938v9.692h-1.938V3.774z"/>
    <path fill="#86B4FF" d="M16.424 6.101L15.07 7.458c1.548 1.065 2.711 2.907 2.711 5.038 0 3.198-2.616 5.814-5.814 5.814-3.197 0-5.815-2.616-5.815-5.814 0-2.13 1.165-3.973 2.811-4.941L7.51 6.1c-1.94 1.454-3.295 3.779-3.295 6.395 0 4.266 3.489 7.753 7.752 7.753 4.264 0 7.753-3.487 7.753-7.753 0-2.616-1.357-4.941-3.295-6.395z"/>
</svg>
