<svg xmlns="http://www.w3.org/2000/svg" width="24" height="24" fill="none" viewBox="0 0 24 24">
    <path fill="#929BAA" d="M10.998 3.774h1.938v9.692h-1.938V3.774z"/>
    <path fill="#929BAA" d="M16.424 6.1L15.07 7.459c1.548 1.064 2.711 2.907 2.711 5.037 0 3.199-2.616 5.815-5.814 5.815-3.197 0-5.815-2.616-5.815-5.815 0-2.13 1.165-3.973 2.811-4.94L7.51 6.1c-1.94 1.453-3.295 3.778-3.295 6.394 0 4.266 3.489 7.754 7.752 7.754 4.264 0 7.753-3.488 7.753-7.754 0-2.616-1.357-4.94-3.295-6.394z"/>
</svg>
