<svg xmlns="http://www.w3.org/2000/svg" width="16" height="16" fill="none" viewBox="0 0 16 16">
    <path fill="#fff" d="M7.146 3.593c0-.44.36-.8.8-.8.44 0 .8.36.8.8L8.74 6.2l1.206 1.193V3.66c0-1.107-.893-2-2-2-1.026 0-1.86.773-1.973 1.767L7.146 4.6V3.593zM12.614 7.66H11.48c0 .387-.066.753-.18 1.093l.847.847c.293-.587.467-1.247.467-1.94z"/>
    <path fill="#FF6B6B" d="M2.887 2.233l-.94.94 4 4v.487c0 1.107.893 2 2 2 .153 0 .293-.02.433-.053l1.107 1.106c-.474.22-1 .347-1.54.347-1.84 0-3.534-1.4-3.534-3.4H3.28c0 2.273 1.813 4.153 4 4.48v2.187h1.333V12.14c.607-.087 1.18-.3 1.7-.6l2.8 2.8.94-.94L2.887 2.233z"/>
</svg>
