<svg xmlns="http://www.w3.org/2000/svg" width="16" height="16" fill="none" viewBox="0 0 16 16">
    <path fill="#fff" d="M14.062 6.015L9.982 1.93c-.104-.098-.243-.153-.386-.15-.071-.004-.143.008-.21.034-.066.026-.126.066-.177.116L6.547 4.595c-.2-.025-.4-.039-.6-.042-1.204 0-2.428.409-3.414 1.203-.061.048-.112.108-.148.177-.035.068-.056.144-.06.222-.005.077.008.154.036.227.028.072.072.137.127.191l3.007 3.009L1.93 13.15c-.043.043-.064.107-.085.171l-.064.624c-.022.15.106.28.258.28h.02l.623-.065c.065 0 .129-.043.172-.087l3.564-3.567 3.006 3.01c.107.106.258.15.386.15.151 0 .323-.065.43-.216.898-1.135 1.315-2.578 1.16-4.018l2.662-2.666c.214-.193.214-.537 0-.752z" opacity=".4"/>
</svg>
