<svg xmlns="http://www.w3.org/2000/svg" width="16" height="16" fill="none" viewBox="0 0 16 16">
    <path fill="#fff" d="M11.175 3.907l-1.12 1.126c.533.754.553 1.72.06 2.494l1.133 1.133c1.267-1.347 1.247-3.32-.073-4.753z"/>
    <path fill="#fff" d="M13.382 1.667l-1.087 1.086c1.813 1.98 1.84 4.927.093 7.04l1.094 1.094c2.493-2.594 2.473-6.56-.1-9.22zM6.288 3.693l2.353 2.354c-.133-1.24-1.113-2.22-2.353-2.354z"/>
    <path fill="#FF6B6B" fill-rule="evenodd" d="M2.941 2.24l-.94.94 1.747 1.747c-.26.406-.413.886-.413 1.406C3.335 7.807 4.528 9 6 9c.52 0 1-.153 1.407-.413l2.933 2.933c-1.18-.787-3.153-1.187-4.34-1.187-1.78 0-5.333.894-5.333 2.667v1.333h10.667V13c0-.247-.074-.467-.194-.68l2.014 2.013.94-.94L2.94 2.24zM2.001 13c.147-.48 2.207-1.333 4-1.333 1.8 0 3.867.86 4 1.333h-8zm2.667-6.667c0 .734.6 1.334 1.333 1.334.147 0 .28-.027.414-.074L4.74 5.92c-.046.133-.073.267-.073.413z" clip-rule="evenodd"/>
</svg>
