<svg xmlns="http://www.w3.org/2000/svg" width="16" height="16" fill="none" viewBox="0 0 16 16">
    <path fill="#fff" fill-rule="evenodd" d="M12.294 2.753l1.086-1.086c2.607 2.7 2.6 6.74 0 9.333l-1.086-1.087c1.846-2.12 1.846-5.146 0-7.16zm-3.627 3.58C8.667 7.807 7.474 9 6 9 4.527 9 3.334 7.807 3.334 6.333 3.334 4.86 4.527 3.667 6 3.667c1.474 0 2.667 1.193 2.667 2.666zm-1.333 0C7.334 5.6 6.734 5 6 5c-.733 0-1.333.6-1.333 1.333 0 .734.6 1.334 1.333 1.334.734 0 1.334-.6 1.334-1.334zm-1.334 4c-1.78 0-5.333.894-5.333 2.667v1.333h10.667V13c0-1.773-3.554-2.667-5.334-2.667zm0 1.334c-1.793 0-3.853.853-4 1.333h8c-.133-.473-2.2-1.333-4-1.333zm4.054-6.634c.56.787.56 1.807 0 2.594l1.12 1.126c1.346-1.346 1.346-3.38 0-4.846l-1.12 1.126z" clip-rule="evenodd"/>
</svg>
