<svg xmlns="http://www.w3.org/2000/svg" width="16" height="16" fill="none" viewBox="0 0 16 16">
    <path fill="#fff" fill-rule="evenodd" d="M8 9.667c1.107 0 1.993-.894 1.993-2l.007-4c0-1.107-.893-2-2-2s-2 .893-2 2v4c0 1.106.893 2 2 2zM7.2 3.6c0-.44.36-.8.8-.8.44 0 .8.36.8.8l-.007 4.133c0 .44-.353.8-.793.8-.44 0-.8-.36-.8-.8V3.6zm.8 7.467c1.84 0 3.533-1.4 3.533-3.4h1.134c0 2.28-1.814 4.16-4 4.48v2.186H7.333v-2.186c-2.186-.327-4-2.207-4-4.48h1.134c0 2 1.693 3.4 3.533 3.4z" clip-rule="evenodd"/>
</svg>
