<svg xmlns="http://www.w3.org/2000/svg" width="16" height="16" fill="none" viewBox="0 0 16 16">
    <path fill="#fff" fill-rule="evenodd" d="M3.333 2h9.334C13.4 2 14 2.6 14 3.333v9.334C14 13.4 13.4 14 12.667 14H3.333C2.6 14 2 13.4 2 12.667V3.333C2 2.6 2.6 2 3.333 2zm1.334 4H6v1.333H4.667V6zm0 2.667V7.333H3.333v-4h9.334v4h-1.334V6H10v1.333H8.667V6H7.333v1.333H6v1.334H4.667zm0 0H3.333V10h1.334V8.667zm2.666 0V7.333h1.334v1.334H7.333zm2.667 0V7.333h1.333v1.334H10zm1.333 0V10h1.334V8.667h-1.334zm-1.333 0V10H8.667V8.667H10zm-2.667 0V10H6V8.667h1.333zM6 12H4.667v-1.333H6V12zm1.333 0h1.334v-1.333H7.333V12zm4 0H10v-1.333h1.333V12z" clip-rule="evenodd"/>
</svg>
