<svg xmlns="http://www.w3.org/2000/svg" width="16" height="16" fill="none" viewBox="0 0 16 16">
    <path fill="#fff" fill-rule="evenodd" d="M4.667.667H14c.733 0 1.333.6 1.333 1.333v9.333c0 .734-.6 1.334-1.333 1.334H4.667c-.734 0-1.334-.6-1.334-1.334V2c0-.733.6-1.333 1.334-1.333zm-4 2.666H2V14h10.667v1.333H2c-.733 0-1.333-.6-1.333-1.333V3.333zm13.333 8H4.667V2H14v9.333zM8.667 8.667h2.666V10h-4V7.333c0-.74.6-1.333 1.334-1.333H10V4.667H7.333V3.333H10c.733 0 1.333.594 1.333 1.334V6c0 .74-.6 1.333-1.333 1.333H8.667v1.334z" clip-rule="evenodd"/>
</svg>
