<svg xmlns="http://www.w3.org/2000/svg" width="16" height="16" fill="none" viewBox="0 0 16 16">
    <path fill="#fff" fill-rule="evenodd" d="M6 2h4l1.22 1.333h2.113c.734 0 1.334.6 1.334 1.334v8c0 .733-.6 1.333-1.334 1.333H2.667c-.734 0-1.334-.6-1.334-1.333v-8c0-.734.6-1.334 1.334-1.334H4.78L6 2zm4.633 2.667l-1.22-1.334H6.587l-1.22 1.334h-2.7v8h10.666v-8h-2.7zM8 6.667c1.1 0 2 .9 2 2s-.9 2-2 2-2-.9-2-2 .9-2 2-2zm-3.333 2c0-1.84 1.493-3.334 3.333-3.334s3.333 1.494 3.333 3.334S9.84 12 8 12s-3.333-1.493-3.333-3.333z" clip-rule="evenodd"/>
</svg>
