<svg xmlns="http://www.w3.org/2000/svg" width="16" height="16" fill="none" viewBox="0 0 16 16">
    <path fill="#fff" d="M6.204 9.6H2.8c-.106 0-.207-.042-.282-.117-.075-.075-.118-.177-.118-.283 0-.106.043-.208.118-.283.075-.075.176-.117.282-.117h4.4c.106 0 .208.042.283.117.075.075.117.177.117.283v4.4c0 .106-.042.208-.117.283-.075.075-.177.117-.283.117-.106 0-.207-.042-.282-.117-.075-.075-.118-.177-.118-.283v-3.464l-3.463 3.462c-.037.039-.08.07-.13.09-.048.021-.1.032-.154.032-.053.001-.106-.01-.155-.03-.05-.02-.094-.05-.131-.087-.038-.037-.068-.082-.088-.131-.02-.05-.03-.102-.03-.155.001-.053.012-.106.033-.154.02-.05.051-.093.09-.13L6.204 9.6zm3.628-2.784h3.392c.106 0 .207.042.282.117.075.075.118.177.118.283 0 .106-.043.208-.118.283-.075.075-.176.117-.282.117h-4.4c-.107 0-.208-.042-.283-.117-.075-.075-.117-.177-.117-.283v-4.4c0-.106.042-.208.117-.283.075-.075.176-.117.283-.117.106 0 .207.042.282.117.075.075.118.177.118.283v3.478l3.49-3.492c.076-.072.177-.113.282-.112.105.001.205.043.28.117.074.074.116.175.117.28 0 .105-.04.206-.113.281L9.832 6.816z"/>
</svg>
